
<svg width="108px" height="37px" viewBox="0 0 108 37" version="1.1" xmlns="http://www.w3.org/2000/svg" xmlns:xlink="http://www.w3.org/1999/xlink">
    <g id="Page-1" stroke="none" stroke-width="1" fill="none" fill-rule="evenodd">
        <path d="M54.248,28 L49.928,28 L49.928,25.696 L49.832,25.696 C49.2559971,26.6560048 48.5093379,27.3493312 47.592,27.776 C46.6746621,28.2026688 45.7360048,28.416 44.776,28.416 C43.5599939,28.416 42.5626706,28.2560016 41.784,27.936 C41.0053294,27.6159984 40.3920022,27.1626696 39.944,26.576 C39.4959978,25.9893304 39.1813342,25.2746709 39,24.432 C38.8186658,23.5893291 38.728,22.6560051 38.728,21.632 L38.728,11.456 L43.272,11.456 L43.272,20.8 C43.272,22.1653402 43.4853312,23.1839966 43.912,23.856 C44.3386688,24.5280034 45.0959946,24.864 46.184,24.864 C47.4213395,24.864 48.3173306,24.4960037 48.872,23.76 C49.4266694,23.0239963 49.704,21.8133418 49.704,20.128 L49.704,11.456 L54.248,11.456 L54.248,28 Z M62.376,8.896 L57.832,8.896 L57.832,5.152 L62.376,5.152 L62.376,8.896 Z M57.832,11.456 L62.376,11.456 L62.376,28 L57.832,28 L57.832,11.456 Z M77.224,17.28 C76.9253318,15.3813238 75.805343,14.432 73.864,14.432 C73.138663,14.432 72.5306691,14.5973317 72.04,14.928 C71.5493309,15.2586683 71.1493349,15.6853307 70.84,16.208 C70.5306651,16.7306693 70.3120006,17.3066635 70.184,17.936 C70.0559994,18.5653365 69.992,19.1893302 69.992,19.808 C69.992,20.4053363 70.0559994,21.0133302 70.184,21.632 C70.3120006,22.2506698 70.5199986,22.8106642 70.808,23.312 C71.0960014,23.8133358 71.4853309,24.2239984 71.976,24.544 C72.4666691,24.8640016 73.0639965,25.024 73.768,25.024 C74.8560054,25.024 75.6933304,24.720003 76.28,24.112 C76.8666696,23.503997 77.2346659,22.6880051 77.384,21.664 L81.768,21.664 C81.4693318,23.8613443 80.616007,25.5359942 79.208,26.688 C77.799993,27.8400058 75.9973443,28.416 73.8,28.416 C72.5626605,28.416 71.4266718,28.2080021 70.392,27.792 C69.3573282,27.3759979 68.477337,26.7946704 67.752,26.048 C67.026663,25.3013296 66.4613354,24.4106718 66.056,23.376 C65.6506646,22.3413282 65.448,21.2053395 65.448,19.968 C65.448,18.6879936 65.6346648,17.4986722 66.008,16.4 C66.3813352,15.3013278 66.930663,14.352004 67.656,13.552 C68.381337,12.751996 69.2666614,12.1280022 70.312,11.68 C71.3573386,11.2319978 72.5519933,11.008 73.896,11.008 C74.8773382,11.008 75.8213288,11.1359987 76.728,11.392 C77.6346712,11.6480013 78.4453298,12.0373307 79.16,12.56 C79.8746702,13.0826693 80.4559978,13.7333294 80.904,14.512 C81.3520022,15.2906706 81.6079997,16.213328 81.672,17.28 L77.224,17.28 Z M84.744,5.152 L89.288,5.152 L89.288,17.408 L95.016,11.456 L100.392,11.456 L94.152,17.536 L101.096,28 L95.592,28 L91.048,20.608 L89.288,22.304 L89.288,28 L84.744,28 L84.744,5.152 Z M102.888,23.072 L107.912,23.072 L107.912,28 L102.888,28 L102.888,23.072 Z" id="uick." fill="#FFFFFF" fill-rule="nonzero"></path>
        <path d="M17.2445652,0 C17.3478261,0 17.5543478,0 17.6576087,0 C17.7608696,0 17.9673913,0 18.0706522,0 C27.4673913,0 35.0054348,7.66946779 35.0054348,17.1008403 C35.0054348,17.3081232 35.0054348,17.5154062 35.0054348,17.8263305 C34.9021739,20.210084 34.2826087,22.4901961 33.3532609,24.4593838 L22.7173913,24.4593838 C24.2663043,22.697479 25.298913,20.0028011 25.298913,17.1008403 C25.298913,17.1008403 25.298913,16.9971989 25.298913,16.9971989 C25.298913,16.6862745 25.298913,16.4789916 25.298913,16.1680672 C25.298913,11.1932773 21.8913043,7.1512605 17.7608696,7.1512605 C17.6576087,7.1512605 17.6576087,7.1512605 17.5543478,7.1512605 C17.451087,7.1512605 17.451087,7.1512605 17.3478261,7.1512605 C13.2173913,7.1512605 9.80978261,11.1932773 9.80978261,16.1680672 C9.80978261,16.4789916 9.80978261,16.6862745 9.80978261,16.9971989 C9.80978261,16.9971989 9.80978261,17.1008403 9.80978261,17.1008403 C9.80978261,22.4901961 13.2173913,26.8431373 17.3478261,26.8431373 C17.451087,26.8431373 17.5543478,26.8431373 17.6576087,26.8431373 L18.2771739,26.8431373 L32.5271739,26.8431373 L38,32.4397759 L33.25,37 L30.5652174,34.3053221 L18.2771739,34.3053221 C17.8641304,34.3053221 17.451087,34.3053221 17.0380435,34.3053221 C16.7282609,34.3053221 16.3152174,34.3053221 15.9021739,34.2016807 C7.22826087,33.6834734 0.413043478,26.6358543 0,17.8263305 C0,17.6190476 0,17.4117647 0,17.1008403 C0,7.66946779 7.64130435,0 16.9347826,0 L17.2445652,0 Z" id="Q" fill="#0C66FF" fill-rule="nonzero"></path>
    </g>
</svg>
