<?xml version="1.0" encoding="UTF-8"?>
<svg width="1600px" height="1200px" viewBox="0 0 1600 1200" version="1.1" xmlns="http://www.w3.org/2000/svg" xmlns:xlink="http://www.w3.org/1999/xlink">
    <!-- Generator: Sketch 60 (88103) - https://sketch.com -->
    <title>Background</title>
    <desc>Created with Sketch.</desc>
    <defs>
        <rect id="path-1" x="0" y="0" width="1600" height="1200"></rect>
    </defs>
    <g id="Patterns" stroke="none" stroke-width="1" fill="none" fill-rule="evenodd">
        <g id="Waimakariri">
            <mask id="mask-2" fill="white">
                <use xlink:href="#path-1"></use>
            </mask>
            <g id="Background" fill-rule="nonzero"></g>
            <g mask="url(#mask-2)" fill-rule="nonzero" id="Shape">
                <g transform="translate(15.000000, 17.000000)">
                    <path d="M210.235616,1013 C248.81643,1013 277,983.094293 277,946.203735 C277,909.313176 244.284362,874.845966 210.235616,879.407469 C176.186871,883.968972 138.33208,905.874101 143.471233,946.203735 C148.610386,986.533368 171.654802,1013 210.235616,1013 Z" fill="#E0436B" transform="translate(210.000000, 946.000000) rotate(39.000000) translate(-210.000000, -946.000000) "></path>
                    <path d="M62.1547332,106 C87.4913871,106 106,86.3604314 106,62.1337958 C106,37.9071602 84.5151032,15.271978 62.1547332,18.2675917 C39.7943631,21.2632054 14.9345003,35.6486634 18.3094663,62.1337958 C21.6844323,88.6189283 36.8180792,106 62.1547332,106 Z" fill="#E0436B" transform="translate(62.000000, 62.000000) rotate(39.000000) translate(-62.000000, -62.000000) "></path>
                    <path d="M310.991968,950.959541 C323.108258,951.697063 331.886549,942.273389 332.930452,929.083451 C333.974356,915.893513 323.108258,905.378365 310.991968,907.207361 C298.875678,909.036357 289.95901,916.540726 289.053484,929.083451 C288.147959,941.626176 298.875678,950.222019 310.991968,950.959541 Z" fill="#E0436B" transform="translate(311.000000, 929.000000) rotate(156.000000) translate(-311.000000, -929.000000) "></path>
                    <path d="M186.154733,292 C211.491387,292 230,272.360431 230,248.133796 C230,223.90716 208.515103,201.271978 186.154733,204.267592 C163.794363,207.263205 138.9345,221.648663 142.309466,248.133796 C145.684432,274.618928 160.818079,292 186.154733,292 Z" fill="#7252A4" transform="translate(186.000000, 248.000000) rotate(39.000000) translate(-186.000000, -248.000000) "></path>
                    <path d="M266.070333,310 C277.586994,310 286,301.072923 286,290.060816 C286,279.048709 276.234138,268.75999 266.070333,270.121633 C255.906529,271.483275 244.606591,278.02212 246.140667,290.060816 C247.674742,302.099513 254.553672,310 266.070333,310 Z" fill="#7252A4" transform="translate(266.000000, 290.000000) rotate(39.000000) translate(-266.000000, -290.000000) "></path>
                    <path d="M1447.97554,780.876783 C1484.87515,783.122872 1511.60903,754.423503 1514.7882,714.254146 C1517.96736,674.084789 1484.87515,642.061385 1447.97554,647.631509 C1411.07593,653.201632 1383.92062,676.055846 1381.16288,714.254146 C1378.40515,752.452446 1411.07593,778.630694 1447.97554,780.876783 Z" fill="#F0C933" transform="translate(1448.000000, 714.000000) rotate(39.000000) translate(-1448.000000, -714.000000) "></path>
                    <path d="M573.991968,860.959541 C586.108258,861.697063 594.886549,852.273389 595.930452,839.083451 C596.974356,825.893513 586.108258,815.378365 573.991968,817.207361 C561.875678,819.036357 552.95901,826.540726 552.053484,839.083451 C551.147959,851.626176 561.875678,860.222019 573.991968,860.959541 Z" fill="#F0C933" transform="translate(574.000000, 839.000000) rotate(39.000000) translate(-574.000000, -839.000000) "></path>
                    <path d="M1488.99197,829.959541 C1501.10826,830.697063 1509.88655,821.273389 1510.93045,808.083451 C1511.97436,794.893513 1501.10826,784.378365 1488.99197,786.207361 C1476.87568,788.036357 1467.95901,795.540726 1467.05348,808.083451 C1466.14796,820.626176 1476.87568,829.222019 1488.99197,829.959541 Z" fill="#F0C933" transform="translate(1489.000000, 808.000000) rotate(39.000000) translate(-1489.000000, -808.000000) "></path>
                    <path d="M600.995984,803.97977 C607.054129,804.348531 611.443274,799.636695 611.965226,793.041725 C612.487178,786.446756 607.054129,781.189183 600.995984,782.103681 C594.937839,783.018178 590.479505,786.770363 590.026742,793.041725 C589.573979,799.313088 594.937839,803.61101 600.995984,803.97977 Z" fill="#F0C933" transform="translate(601.000000, 793.000000) rotate(39.000000) translate(-601.000000, -793.000000) "></path>
                    <path d="M901.97554,557.876783 C938.87515,560.122872 965.609034,531.423503 968.788195,491.254146 C971.967356,451.084789 938.87515,419.061385 901.97554,424.631509 C865.075929,430.201632 837.920621,453.055846 835.162884,491.254146 C832.405147,529.452446 865.075929,555.630694 901.97554,557.876783 Z" fill="#453264" transform="translate(902.000000, 491.000000) rotate(39.000000) translate(-902.000000, -491.000000) "></path>
                    <path d="M125.991968,483.959541 C138.108258,484.697063 146.886549,475.273389 147.930452,462.083451 C148.974356,448.893513 138.108258,438.378365 125.991968,440.207361 C113.875678,442.036357 104.95901,449.540726 104.053484,462.083451 C103.147959,474.626176 113.875678,483.222019 125.991968,483.959541 Z" fill="#453264" transform="translate(126.000000, 462.000000) rotate(39.000000) translate(-126.000000, -462.000000) "></path>
                    <path d="M1381.99197,986.959541 C1394.10826,987.697063 1402.88655,978.273389 1403.93045,965.083451 C1404.97436,951.893513 1394.10826,941.378365 1381.99197,943.207361 C1369.87568,945.036357 1360.95901,952.540726 1360.05348,965.083451 C1359.14796,977.626176 1369.87568,986.222019 1381.99197,986.959541 Z" fill="#453264" transform="translate(1382.000000, 965.000000) rotate(39.000000) translate(-1382.000000, -965.000000) "></path>
                    <path d="M863.991968,606.959541 C876.108258,607.697063 884.886549,598.273389 885.930452,585.083451 C886.974356,571.893513 876.108258,561.378365 863.991968,563.207361 C851.875678,565.036357 842.95901,572.540726 842.053484,585.083451 C841.147959,597.626176 851.875678,606.222019 863.991968,606.959541 Z" fill="#453264" transform="translate(864.000000, 585.000000) rotate(117.000000) translate(-864.000000, -585.000000) "></path>
                    <path d="M1568.97554,380.876783 C1605.87515,383.122872 1632.60903,354.423503 1635.7882,314.254146 C1638.96736,274.084789 1605.87515,242.061385 1568.97554,247.631509 C1532.07593,253.201632 1504.92062,276.055846 1502.16288,314.254146 C1499.40515,352.452446 1532.07593,378.630694 1568.97554,380.876783 Z" fill="#0F90D1" transform="translate(1569.000000, 314.000000) rotate(39.000000) translate(-1569.000000, -314.000000) "></path>
                    <path d="M1443.15004,240.662821 C1460.5812,237.498102 1476,225.963698 1476,207.83141 C1476,189.699123 1461.29257,175 1443.15004,175 C1425.0075,175 1413.1747,191.577769 1410.30007,207.83141 C1407.42544,224.085051 1425.71887,243.82754 1443.15004,240.662821 Z" fill="#EFF3F0" transform="translate(1443.000000, 208.000000) rotate(39.000000) translate(-1443.000000, -208.000000) "></path>
                    <path d="M1049.09093,295.795649 C1059.65527,293.877637 1069,286.88709 1069,275.897825 C1069,264.908559 1060.08641,256 1049.09093,256 C1038.09546,256 1030.92406,266.047133 1029.18186,275.897825 C1027.43966,285.748516 1038.52659,297.713661 1049.09093,295.795649 Z" fill="#EFF3F0" transform="translate(1049.000000, 276.000000) rotate(39.000000) translate(-1049.000000, -276.000000) "></path>
                </g>
            </g>
        </g>
    </g>
</svg>
