<svg id="8b053045-1b70-4d71-bc8a-02442f9b90dc" data-name="Layer 1" xmlns="http://www.w3.org/2000/svg" xmlns:xlink="http://www.w3.org/1999/xlink" width="1069.82" height="837.5" viewBox="0 0 1069.82 837.5"><defs><linearGradient id="b5fdf2dc-9f7f-4cfc-bfc1-c2a944f796c6" x1="639.01" y1="505.57" x2="639.01" y2="392.27" gradientTransform="translate(-62.06 98.17) rotate(-9.06)" gradientUnits="userSpaceOnUse"><stop offset="0" stop-color="gray" stop-opacity="0.25"/><stop offset="0.54" stop-color="gray" stop-opacity="0.12"/><stop offset="1" stop-color="gray" stop-opacity="0.1"/></linearGradient><linearGradient id="84e2b2cb-4695-4b74-8c91-208d34301889" x1="385.82" y1="432.36" x2="444.34" y2="432.36" xlink:href="#b5fdf2dc-9f7f-4cfc-bfc1-c2a944f796c6"/></defs><title>instant support</title><path d="M223.49,557.84a4.24,4.24,0,0,1-4.23,4.23h-6a4.23,4.23,0,1,1,0,8.46h8.45a4.23,4.23,0,0,1,0,8.46H182c27.13,76,78,142.44,144.88,192.51a4.21,4.21,0,0,1,2.37-.74h48.93a4.23,4.23,0,1,1,0,8.46h-6a4.23,4.23,0,1,1,0,8.46h8.46a4.23,4.23,0,0,1,0,8.46H363.25c74.93,45.8,165.6,72.61,263.28,72.61A515.07,515.07,0,0,0,796.65,840.2q10.9-3.83,21.55-8.1,18.54-7.49,36.21-16.33,7.62-3.81,15.07-7.88l.23-.12,1.12-.62,2.91-1.61q8.81-4.92,17.35-10.18l3.5-2.17q4.44-2.79,8.79-5.67,8.68-5.71,17.06-11.8l2-1.48,1.61-1.19q11.28-8.34,21.94-17.29l.3-.25q5.22-4.39,10.29-8.93l.3-.27a437.74,437.74,0,0,0,31.51-31.2,419.94,419.94,0,0,0,40.76-52.38h-19.5a4.23,4.23,0,0,1,0-8.46h-8.45a4.23,4.23,0,0,1,0-8.46h6a4.23,4.23,0,1,1,0-8.45h37.29c31-55.72,48.43-118.5,48.43-184.93a375,375,0,0,0-20.74-123.1H989.19a8.94,8.94,0,0,1,0-17.87H971.33a8.93,8.93,0,0,1,0-17.86h12.76a8.94,8.94,0,0,1,0-17.87H1049C974.55,134.16,813.37,36.12,626.53,36.12c-109.14,0-209.51,33.45-289,89.48h20.8a8.94,8.94,0,0,1,0,17.87H345.6a8.93,8.93,0,0,1,0,17.86h17.86a8.94,8.94,0,1,1,0,17.87H274.58c-71.33,73.12-114.53,168.67-114.53,273.23a374.87,374.87,0,0,0,13.89,101.18h45.32A4.25,4.25,0,0,1,223.49,557.84Z" transform="translate(-65.09 -31.25)" fill="#0c66ff" opacity="0.1"/><path d="M881.49,379.18c-4.17-.36-18.7-12.07-27.12-15.52-3.88-1.59-6.31,1.77-7.81,5.85-5.16-3.37-10.82-7.1-15-8.8a4.29,4.29,0,0,0-3.47-.07c-5.42,2.35-6.58,16.52-6.58,16.52l.19.89c-2.66,2.09-10.64,3.4-14.1,3.63-4.07.26-9.45.86-11.35,1.8s-24,6.26-36.71,10.14S714,416.83,714,416.83l-31.12,7-4.37-.84c-1.39-5-7.75-4.95-15.2-2.93-12.1-2.22-24.17-3.95-28.07-2.18,11.15-5.68,24.86-14.69,24.7-24.63-.22-13.56-27.06,5.46-37.22,13.15l-.87.66-.23-.86s-7.41,2.89-23.21,2.51-22.83,7.05-24.25,7.79-15.88,5.61-17,5.8c-.87.14-25.81,2.4-38.4,3.53-17.41-1.57-42.55,1.17-43.93,3.77-1.58,3-20.72,13.92-20.72,13.92l-6.56,1.72s-.78,2-1.68,4.56a17.79,17.79,0,0,1-1.62-3.09,52.85,52.85,0,0,1-2.32-8.16h0c-.08-.37-.17-.74-.26-1.11,0-.09-.05-.18-.07-.27l-.24-.93-.06-.23a32.47,32.47,0,0,0-1.18-3.53v0a18.77,18.77,0,0,0-1.7-3.31h0a11.71,11.71,0,0,0-3.78-3.76c-2.51-1.53-5.54-1.89-8.46-2.22a37,37,0,0,0-7.43-.32c-2.13.2-4.22.78-6.35.91-3.43.2-6.8-.77-10.2-1.29s-7.1-.51-10,1.39c-2.44,1.62-3.85,4.35-5.42,6.82a44.22,44.22,0,0,1-11.16,11.94c-3,2.17-6.41,4.26-7.5,7.76s.42,6.89,1.09,10.34c1.48,7.6-.91,15.94,1.75,23h0c.06.16.12.31.19.47.15.38.31.77.5,1.14h0a10.38,10.38,0,0,0,.56,1,7.55,7.55,0,0,0,.66.91,5.29,5.29,0,0,0,.79.78,4.81,4.81,0,0,0,.93.61,6.85,6.85,0,0,0,3.89.45l.72-.1.66-.12a20.24,20.24,0,0,0,2.3-.55,8.9,8.9,0,0,0,2.14-.95,4.83,4.83,0,0,0,2.23-3.47,11.68,11.68,0,0,0,.14-1.89v-.44l.15.46h0a29.73,29.73,0,0,0,54.14,4.16l1.13-.38a70,70,0,0,1,11.12-2.58h0a22.94,22.94,0,0,0,1.38,2.42c12.31,19.19,50.78,19.85,50.78,19.85s42.51-1.65,45.8-2.51,13.1.64,15.93,3.27,15.3,3.72,19.35-3.08,8.7-5.49,8.7-5.49a20.2,20.2,0,0,0,2.14-3.65l2.71.13c7.15.38,18.63,1.12,21.11,2.12,3.66,1.47,19.38,1.36,27.88-2.22s35-18.76,35-18.76,16.48-5,19.41-6S714,461,714,461l15.8-6.12s16.69-9,23.73-9.94,13.42-7.1,13.42-7.1L811.7,417a23.24,23.24,0,0,1,9,.45c4,1.25,30.05-2.57,37.94-11,0,0,.29-1.09.68-2.87.36,0,.73-.07,1.12-.08,1.68.37,2.71.62,2.71.62a69.36,69.36,0,0,0,10.58,6.53c5.31,2.55,11,3.95,13-.42a7.83,7.83,0,0,0,.6-2.12c5.14,3.65,22.44,14.9,22.93,1.5C910.86,393.87,885.65,379.54,881.49,379.18Z" transform="translate(-65.09 -31.25)" fill="url(#b5fdf2dc-9f7f-4cfc-bfc1-c2a944f796c6)"/><path d="M464.09,482.14s-8.08-.51-19.34,3.09a71.18,71.18,0,0,0-10.85,4.43C417.34,498,431.09,453,431.09,453s4.61,0,10.15-.47c6.62-.53,14.56-1.63,17.5-3.93C464.14,444.33,464.09,482.14,464.09,482.14Z" transform="translate(-65.09 -31.25)" fill="#efb7b9"/><path d="M659.65,393.93c.2,12.58-22.12,23.65-32.72,28.2-3.3,1.41-5.48,2.19-5.48,2.19l-2.31-14.48s1.45-1.17,3.79-2.94C633,399.31,659.43,380.55,659.65,393.93Z" transform="translate(-65.09 -31.25)" fill="#efb7b9"/><path d="M626.93,422.13c-3.3,1.41-5.48,2.19-5.48,2.19l-2.31-14.48s1.45-1.17,3.79-2.94Z" transform="translate(-65.09 -31.25)" opacity="0.1"/><path d="M513.31,426.7s43.76-3.93,44.91-4.12,15.41-5,16.81-5.71,8.33-8.07,23.92-7.69,22.9-2.47,22.9-2.47l5.15,19.6L523.06,438.1Z" transform="translate(-65.09 -31.25)" fill="#e1e7ef"/><path d="M513.31,426.7s43.76-3.93,44.91-4.12,15.41-5,16.81-5.71,8.33-8.07,23.92-7.69,22.9-2.47,22.9-2.47l5.15,19.6L523.06,438.1Z" transform="translate(-65.09 -31.25)" opacity="0.05"/><path d="M819.05,378s1.6-19.63,9.9-16.23,22.64,15,26.75,15.32,29,14.49,28.41,30-24-2.51-24-2.51-21.78-5.35-28.82-2.94S819.05,378,819.05,378Z" transform="translate(-65.09 -31.25)" fill="#b07473"/><path d="M884.11,407.12c-.57,15.51-24-2.51-24-2.51s-21.77-5.35-28.82-2.94c-2,.7-4-1-5.6-3.81-3.15-5.32-5.43-14.54-6.26-18.24-.23-1-.34-1.59-.34-1.59s1.6-19.63,9.9-16.22,22.63,14.95,26.74,15.31S884.67,391.61,884.11,407.12Z" transform="translate(-65.09 -31.25)" opacity="0.1"/><path d="M839.2,389.62c-.71,1.82-5.74,4.71-13.55,8.24-3.15-5.32-5.43-14.54-6.26-18.24,1.47-.63,2.51-1.36,2.68-2.18C822.65,374.7,843.27,379.18,839.2,389.62Z" transform="translate(-65.09 -31.25)" opacity="0.1"/><path d="M665.15,428,713,417.16s32.4-19.07,45-22.89,34.33-9.07,36.21-10,7.18-1.53,11.19-1.78,14.2-2,14.78-4.73,21.2,1.73,17.13,12.17S687.82,445.8,687.82,445.8Z" transform="translate(-65.09 -31.25)" fill="#444053"/><path d="M665.15,428,713,417.16s32.4-19.07,45-22.89,34.33-9.07,36.21-10,7.18-1.53,11.19-1.78,14.2-2,14.78-4.73,21.2,1.73,17.13,12.17S687.82,445.8,687.82,445.8Z" transform="translate(-65.09 -31.25)" opacity="0.1"/><path d="M906.59,410c-.57,15.52-24-2.51-24-2.51s-15.23-3.74-24.33-3.56a15,15,0,0,0-4.49.62c-7,2.41-12.21-23.64-12.21-23.64s.1-1.26.39-3.08c.85-5.4,3.31-15.69,9.52-13.15,8.3,3.41,22.63,15,26.74,15.31S907.15,394.52,906.59,410Z" transform="translate(-65.09 -31.25)" fill="#b07473"/><path d="M858.23,404a15,15,0,0,0-4.49.62c-7,2.41-12.21-23.64-12.21-23.64s.1-1.26.39-3.08c5.84-1.25,10.73-2.37,10.73-2.37C863.37,376,859.85,396.55,858.23,404Z" transform="translate(-65.09 -31.25)" opacity="0.1"/><path d="M855.63,406.91c-7.79,8.33-33.51,12.09-37.43,10.87a22.89,22.89,0,0,0-8.85-.46l-44.14,20.55s-6.3,6.06-13.24,7-23.41,9.8-23.41,9.8l-15.58,6S705.37,468,702.49,469s-19.15,5.91-19.15,5.91-26.13,15-34.52,18.51-23.88,3.63-27.5,2.18c-2.44-1-13.77-1.71-20.81-2.09-3.34-.17-5.72-.26-5.72-.26l-8.24-62.31s6.81-1.51,15.41-3.54c12.49-2.94,28.76-7,33.27-9.12,7.63-3.59,48.3,7,55.76,7.15s45.51-12,45.51-12,47.54-26.82,57.16-26.83,22.11-4.2,29.87-5.27,27.14-5.51,27.14-5.51C863.76,376.42,855.63,406.91,855.63,406.91Z" transform="translate(-65.09 -31.25)" fill="#444053"/><path d="M447.81,466.84a29.24,29.24,0,0,1-3.06,18.39,71.18,71.18,0,0,0-10.85,4.43C417.34,498,431.09,453,431.09,453s4.61,0,10.15-.47A29.17,29.17,0,0,1,447.81,466.84Z" transform="translate(-65.09 -31.25)" opacity="0.1"/><path d="M446.82,467a29.33,29.33,0,0,1-56.58,14.5h0c-.18-.5-.34-1-.5-1.51a28.64,28.64,0,0,1-.86-3.74,29.34,29.34,0,0,1,57.34-12.1A26.34,26.34,0,0,1,446.82,467Z" transform="translate(-65.09 -31.25)" fill="#efb7b9"/><path d="M599.72,466.94c6.23,12.14,3.13,21.88.79,26.53-3.34-.17-5.72-.26-5.72-.26l-8.24-62.31s6.81-1.51,15.41-3.54l.89-.07S590.91,449.78,599.72,466.94Z" transform="translate(-65.09 -31.25)" opacity="0.1"/><path d="M596.76,467.41c8.81,17.17-1,29.53-1,29.53s-4.59-1.29-8.58,5.42-16.32,5.64-19.09,3-12.47-4.09-15.71-3.23-45.17,2.47-45.17,2.47-37.94-.64-50.09-19.57a23.23,23.23,0,0,1-1.36-2.38s-9.59-17.94-9.89-21.94c-.13-1.56.5-4.26,1.3-7,1.27-4.25,3-8.56,3-8.56l6.47-1.7s18.88-10.77,20.43-13.72,33.8-6.06,50.19-2.77,47.37,2.87,47.37,2.87l25.32-2.13S588,450.25,596.76,467.41Z" transform="translate(-65.09 -31.25)" fill="#e1e7ef"/><path d="M559.61,497a76,76,0,0,0,11-5.31C576.44,488.2,559.61,497,559.61,497Z" transform="translate(-65.09 -31.25)" opacity="0.1"/><path d="M467,455.86s12.46,23.16,39.1,15.54,46.59-2,46.59-2,24.92-1.43,29.51-3.34a186.37,186.37,0,0,1,21.06-6.56c3.93-.8,9.41-2.38,13.75-3.73s27.53-6.23,27.53-6.23-7.33-16.38-3.78-18.47c0,0-22.89,4.66-23.15,3s-25.91-2.67-28-1-25,3.32-27,4.07S525.21,441,525.21,441,472.1,419.41,467,455.86Z" transform="translate(-65.09 -31.25)" opacity="0.1"/><path d="M635,432.77s41.71-24.17,43.24-8.21S639,446.34,639,446.34Z" transform="translate(-65.09 -31.25)" fill="#efb7b9"/><path d="M467.5,452.74S480,475.9,506.6,468.28s46.6-2,46.6-2,24.92-1.43,29.5-3.34a185.87,185.87,0,0,1,21.07-6.56c3.92-.8,9.41-2.38,13.75-3.73s27.53-6.23,27.53-6.23-7.34-16.38-3.79-18.47c0,0-22.88,4.66-23.15,3s-25.91-2.67-28-1-25,3.32-27,4.07-37.37,3.85-37.37,3.85S472.61,416.29,467.5,452.74Z" transform="translate(-65.09 -31.25)" opacity="0.1"/><path d="M466.67,453.88s12.47,23.16,39.1,15.54,46.6-2,46.6-2,24.92-1.43,29.5-3.34a186,186,0,0,1,21.07-6.57c3.92-.79,9.41-2.38,13.75-3.73s27.53-6.22,27.53-6.22-7.34-16.39-3.79-18.47c0,0-22.88,4.66-23.15,3s-25.91-2.67-28-1-24.95,3.32-27,4.08S524.89,439,524.89,439,471.78,417.43,466.67,453.88Z" transform="translate(-65.09 -31.25)" fill="#e1e7ef"/><path d="M553.61,448.74c-.39-1.07,6.33-.56,19.59-3.12s35.58-8.68,35.58-8.68S556.59,456.82,553.61,448.74Z" transform="translate(-65.09 -31.25)" opacity="0.1"/><path d="M502.48,441.38s.63,1.8-5.84,5.7" transform="translate(-65.09 -31.25)" opacity="0.1"/><path d="M516.06,444a7.16,7.16,0,0,1-4.72,8.48" transform="translate(-65.09 -31.25)" opacity="0.1"/><path d="M457.87,483.93l5.16,4.79s5.54,3,6.13,4.6S481,494.63,481,494.63l13,8.2-5.52-7.7a15.08,15.08,0,0,0,12.74-2.71c6.33-4.72,18.89-17,18.89-17l22.67-17.64.38-11.37-17.84-2.89L483.8,485.58l-9.41,1.33-10-1.11Z" transform="translate(-65.09 -31.25)" opacity="0.1"/><path d="M456.73,483.1l5.16,4.79s5.53,3,6.13,4.6,11.85,1.31,11.85,1.31l13,8.2-5.52-7.7a15.05,15.05,0,0,0,12.73-2.71c6.34-4.72,18.9-17,18.9-17L541.68,457l.38-11.37-17.84-2.89-41.57,42.06-9.41,1.33-10-1.11Z" transform="translate(-65.09 -31.25)" fill="#67647e"/><path d="M470.59,480.6l-11.38,5.15a21.57,21.57,0,0,1-1.35-2.39s-9.6-17.93-9.9-21.94c-.13-1.56.5-4.26,1.31-7Z" transform="translate(-65.09 -31.25)" opacity="0.1"/><path d="M468.46,479.93l-11.38,5.14a23.23,23.23,0,0,1-1.36-2.38s-9.59-17.94-9.89-21.94c-.13-1.56.5-4.26,1.3-7Z" transform="translate(-65.09 -31.25)" fill="#e1e7ef"/><path d="M446.22,464.14a5.3,5.3,0,0,1-1.76,1.48c-1.77.81-3.83,0-5.77.09s-3.9,1.15-5.91,1.31a15.4,15.4,0,0,1-4.2-.52c-2.65-.55-5.53-.86-8,.34s-4,4.44-2.56,6.73c-1.57,2.21-4.62,2.92-7.31,2.55-6.3-.89-11.58-6.31-18-2.11-2.79,1.85-2.61,4.71-2.55,7.48-.18-.5-.34-1-.5-1.51a28.64,28.64,0,0,1-.86-3.74,29.34,29.34,0,0,1,57.34-12.1Z" transform="translate(-65.09 -31.25)" fill="url(#84e2b2cb-4695-4b74-8c91-208d34301889)"/><path d="M387.75,486.75a12.22,12.22,0,0,1-4.38,1.48,8.24,8.24,0,0,1-5.2-.23,6.87,6.87,0,0,1-2.89-3.22c-3.7-7.34-.84-16.26-2.41-24.33-.66-3.4-2.11-6.9-1.08-10.2s4.48-5.51,7.39-7.65a43.84,43.84,0,0,0,11-11.78c1.55-2.44,2.94-5.13,5.34-6.72,2.82-1.88,6.48-1.88,9.83-1.37s6.67,1.46,10.06,1.26c2.1-.12,4.16-.69,6.26-.89a35.34,35.34,0,0,1,7.33.32c2.88.32,5.86.68,8.34,2.18,4.37,2.64,6.07,8,7.21,13s2.29,10.38,6.15,13.71a3.48,3.48,0,0,1,1.38,1.72,3,3,0,0,1-.87,2.26l-4.56,6.06a6.74,6.74,0,0,1-2.37,2.26c-1.76.82-3.83,0-5.77.08s-3.89,1.17-5.91,1.32a15,15,0,0,1-4.2-.52c-2.65-.55-5.53-.86-7.95.34s-4,4.44-2.56,6.73c-1.58,2.21-4.63,2.93-7.31,2.55-6.31-.88-11.59-6.31-18-2.11C387.38,476.48,392.69,483.62,387.75,486.75Z" transform="translate(-65.09 -31.25)" fill="#585268"/><g opacity="0.1"><path d="M443,435.59c.88,3.81,1.76,7.88,3.86,11.07a51.91,51.91,0,0,1-2.28-8,29.1,29.1,0,0,0-3.48-9.31A39.4,39.4,0,0,1,443,435.59Z" transform="translate(-65.09 -31.25)"/><path d="M450.72,452.33l-.31-.29a5.32,5.32,0,0,1-.75,1.25l-4.56,6.06a6.82,6.82,0,0,1-2.37,2.26c-1.76.82-3.83,0-5.77.08s-3.89,1.17-5.91,1.32a15,15,0,0,1-4.2-.52c-2.65-.55-5.53-.86-8,.34s-4,4.44-2.56,6.73c-1.58,2.21-4.62,2.93-7.31,2.55-6.3-.88-11.58-6.31-18-2.11-5.25,3.46.06,10.6-4.89,13.73a12.11,12.11,0,0,1-4.37,1.48c-1.74.33-3.62.56-5.2-.23a5.57,5.57,0,0,1-2-1.79,14.7,14.7,0,0,0,.69,1.59,6.87,6.87,0,0,0,2.89,3.22,8.24,8.24,0,0,0,5.2.23,12.22,12.22,0,0,0,4.38-1.48c4.94-3.13-.37-10.27,4.89-13.73,6.37-4.2,11.65,1.23,18,2.11,2.68.38,5.73-.34,7.31-2.55-1.44-2.29.13-5.53,2.56-6.73s5.3-.89,7.95-.34a15,15,0,0,0,4.2.52c2-.15,3.89-1.23,5.91-1.32s4,.74,5.77-.08a6.74,6.74,0,0,0,2.37-2.26l4.56-6.06a3,3,0,0,0,.87-2.26A3.48,3.48,0,0,0,450.72,452.33Z" transform="translate(-65.09 -31.25)"/></g><path d="M684.39,439.1s7.81,14,6.15,16.32S684.39,439.1,684.39,439.1Z" transform="translate(-65.09 -31.25)" opacity="0.1"/><path d="M710.07,435s4.92,8.61,3.92,10.32" transform="translate(-65.09 -31.25)" opacity="0.1"/><path d="M739.55,415.09s5.69,4,3.58,6.6" transform="translate(-65.09 -31.25)" opacity="0.1"/><path d="M745.28,412.9s7.23,8.84,4.83,11.25" transform="translate(-65.09 -31.25)" opacity="0.1"/><path d="M844.7,388.67s1.1,14.79,5.45,13.53S844.7,388.67,844.7,388.67Z" transform="translate(-65.09 -31.25)" opacity="0.1"/><path d="M809.15,754.22s6.07-20.61-1.14-35.78A32.49,32.49,0,0,1,805.38,698a54.41,54.41,0,0,1,2.89-9.58" transform="translate(-65.09 -31.25)" fill="none" stroke="#535461" stroke-miterlimit="10" stroke-width="2"/><path d="M803.78,678.85c0,2.52,4.58,9.85,4.58,9.85s4.57-7.33,4.57-9.85a4.58,4.58,0,0,0-9.15,0Z" transform="translate(-65.09 -31.25)" fill="#0c66ff"/><path d="M796.22,692.84c1.38,2.12,9.2,5.78,9.2,5.78s-.15-8.63-1.52-10.75a4.57,4.57,0,0,0-7.68,5Z" transform="translate(-65.09 -31.25)" fill="#0c66ff"/><path d="M796.55,716.75c2.26,1.14,10.86.35,10.86.35s-4.48-7.38-6.74-8.52a4.58,4.58,0,0,0-4.12,8.17Z" transform="translate(-65.09 -31.25)" fill="#0c66ff"/><path d="M800.88,734.78c2,1.5,10.64,2.18,10.64,2.18s-3.17-8-5.2-9.53a4.57,4.57,0,1,0-5.44,7.35Z" transform="translate(-65.09 -31.25)" fill="#0c66ff"/><path d="M815,699.11c-1.81,1.76-10.25,3.58-10.25,3.58s2.06-8.38,3.88-10.14a4.57,4.57,0,0,1,6.37,6.56Z" transform="translate(-65.09 -31.25)" fill="#0c66ff"/><path d="M819.81,720.27c-2.26,1.13-10.86.35-10.86.35s4.48-7.38,6.74-8.52a4.58,4.58,0,0,1,4.12,8.17Z" transform="translate(-65.09 -31.25)" fill="#0c66ff"/><path d="M821.64,741.47c-2,1.5-10.64,2.18-10.64,2.18s3.17-8,5.2-9.54a4.58,4.58,0,1,1,5.44,7.36Z" transform="translate(-65.09 -31.25)" fill="#0c66ff"/><path d="M957.31,733.23s6.07-20.61-1.14-35.78A32.57,32.57,0,0,1,953.54,677a54.5,54.5,0,0,1,2.89-9.59" transform="translate(-65.09 -31.25)" fill="none" stroke="#535461" stroke-miterlimit="10" stroke-width="2"/><path d="M951.94,657.86c0,2.52,4.58,9.85,4.58,9.85s4.57-7.33,4.57-9.85a4.58,4.58,0,1,0-9.15,0Z" transform="translate(-65.09 -31.25)" fill="#0c66ff"/><path d="M944.38,671.85c1.38,2.12,9.2,5.78,9.2,5.78s-.14-8.63-1.52-10.75a4.57,4.57,0,1,0-7.68,5Z" transform="translate(-65.09 -31.25)" fill="#0c66ff"/><path d="M944.72,695.75c2.25,1.14,10.85.36,10.85.36s-4.48-7.39-6.74-8.52a4.57,4.57,0,1,0-4.11,8.16Z" transform="translate(-65.09 -31.25)" fill="#0c66ff"/><path d="M949,713.79c2,1.5,10.64,2.18,10.64,2.18s-3.17-8-5.2-9.54a4.58,4.58,0,0,0-5.44,7.36Z" transform="translate(-65.09 -31.25)" fill="#0c66ff"/><path d="M963.18,678.12c-1.81,1.76-10.25,3.58-10.25,3.58s2.07-8.38,3.88-10.14a4.57,4.57,0,0,1,6.37,6.56Z" transform="translate(-65.09 -31.25)" fill="#0c66ff"/><path d="M968,699.27c-2.26,1.14-10.86.35-10.86.35s4.49-7.38,6.74-8.51a4.57,4.57,0,0,1,4.12,8.16Z" transform="translate(-65.09 -31.25)" fill="#0c66ff"/><path d="M969.8,720.47c-2,1.5-10.64,2.18-10.64,2.18s3.17-8,5.2-9.53a4.57,4.57,0,1,1,5.44,7.35Z" transform="translate(-65.09 -31.25)" fill="#0c66ff"/><path d="M840.6,731.23s6.07-20.61-1.14-35.78A32.56,32.56,0,0,1,836.83,675a54.41,54.41,0,0,1,2.89-9.58" transform="translate(-65.09 -31.25)" fill="none" stroke="#535461" stroke-miterlimit="10" stroke-width="2"/><path d="M835.23,655.86c0,2.52,4.58,9.85,4.58,9.85s4.57-7.33,4.57-9.85a4.58,4.58,0,0,0-9.15,0Z" transform="translate(-65.09 -31.25)" fill="#0c66ff"/><path d="M827.67,669.85c1.38,2.12,9.2,5.78,9.2,5.78s-.14-8.63-1.52-10.75a4.57,4.57,0,1,0-7.68,5Z" transform="translate(-65.09 -31.25)" fill="#0c66ff"/><path d="M828,693.76c2.25,1.14,10.85.35,10.85.35s-4.48-7.38-6.74-8.52a4.57,4.57,0,1,0-4.11,8.17Z" transform="translate(-65.09 -31.25)" fill="#0c66ff"/><path d="M832.33,711.79c2,1.5,10.64,2.18,10.64,2.18s-3.17-8-5.2-9.53a4.57,4.57,0,1,0-5.44,7.35Z" transform="translate(-65.09 -31.25)" fill="#0c66ff"/><path d="M846.47,676.12c-1.81,1.76-10.25,3.58-10.25,3.58s2.07-8.38,3.88-10.14a4.57,4.57,0,0,1,6.37,6.56Z" transform="translate(-65.09 -31.25)" fill="#0c66ff"/><path d="M851.26,697.28c-2.26,1.13-10.86.35-10.86.35s4.49-7.38,6.74-8.52a4.58,4.58,0,0,1,4.12,8.17Z" transform="translate(-65.09 -31.25)" fill="#0c66ff"/><path d="M853.09,718.48c-2,1.5-10.64,2.18-10.64,2.18s3.17-8,5.2-9.54a4.58,4.58,0,1,1,5.44,7.36Z" transform="translate(-65.09 -31.25)" fill="#0c66ff"/><path d="M946,753.16c0,.88,0,1.75,0,2.6l.3-.25q5.22-4.39,10.29-8.93l.3-.27a437.74,437.74,0,0,0,31.51-31.2c-10.67-18.56-35.66-18.66-40.15-18.52l-.7,0S945.94,730,946,753.16Z" transform="translate(-65.09 -31.25)" fill="#a8a8a8"/><path d="M946,753.16c0,.88,0,1.75,0,2.6l.3-.25q5.22-4.39,10.29-8.93l.3-.27a437.74,437.74,0,0,0,31.51-31.2c-10.67-18.56-35.66-18.66-40.15-18.52l-.7,0S945.94,730,946,753.16Z" transform="translate(-65.09 -31.25)" fill="#fff" opacity="0.1"/><path d="M839.48,717.53l.84,5.54h0l8.56,56.29,2.8,18.46,2.73,17.94q7.62-3.81,15.07-7.88l.23-.12,1.12-.62,2.91-1.61q8.81-4.92,17.35-10.18l3.5-2.17q4.44-2.79,8.79-5.67,8.68-5.71,17.06-11.8l2-1.48,1.61-1.19q11.28-8.34,21.94-17.29l.3-.25q5.22-4.39,10.29-8.93l-5-25.75q-1.5-7.82-2.48-15.7-.54-4.26-.9-8.54c-.07-.68-.13-1.37-.18-2.05-1.72-21.47-7-66.07-21.81-76.56a11.19,11.19,0,0,0-10-1.77,41,41,0,0,0-4.33,1.48c-10.39,4.16-20.22,12.42-28.37,21a148.26,148.26,0,0,0-28,42.24l-15,33.81-.05.11-.14.31Z" transform="translate(-65.09 -31.25)" fill="#a8a8a8"/><path d="M876,775.24l17.39-59.48s16.28,43.75,29.09,58.48l1.61-1.19L901,716s-7.56-32.51-1.51-44.35c4.8-9.4,20.56-41,26.85-53.68a11.19,11.19,0,0,0-10-1.77,41,41,0,0,0-4.33,1.48c-8,12.68-22.8,38-23.9,53.71a196.94,196.94,0,0,0,1.76,41.15Z" transform="translate(-65.09 -31.25)" fill="#fff" opacity="0.1"/><path d="M796.65,840.2q10.9-3.83,21.55-8.1,18.54-7.49,36.21-16.33,7.62-3.81,15.07-7.88l.23-.12-.58-3.67v0l-.63-4-2.07-13.26s-9.63-41.64-19.81-62.65a39.18,39.18,0,0,0-5.91-9.43c-.15-.17-.31-.32-.47-.47l0,0a11.27,11.27,0,0,0-7-1.7,14.79,14.79,0,0,0-8.61,4.05c-5,4.45-10.45,13.36-15.13,30.41C802.29,773.19,798.54,811.84,796.65,840.2Z" transform="translate(-65.09 -31.25)" fill="#a8a8a8"/><path d="M818.2,832.1q18.54-7.49,36.21-16.33,7.62-3.81,15.07-7.88c-.05-1.24-.17-2.5-.35-3.79v0s-1.27-7-14.7-6.47c-.92,0-1.84.11-2.75.22A38.2,38.2,0,0,0,820.41,823,40.33,40.33,0,0,0,818.2,832.1Z" transform="translate(-65.09 -31.25)" fill="#fff" opacity="0.1"/><path d="M835.94,733.91c.45-11.88-6-15.95-11.33-17.31a14.73,14.73,0,0,1,8.61-4.05,22.86,22.86,0,0,1,7.51,12l13.61,66.28S835.18,753.82,835.94,733.91Z" transform="translate(-65.09 -31.25)" fill="#fff" opacity="0.1"/><path d="M894.81,790.27l-3.72,5.09,3.5-2.17q4.44-2.79,8.79-5.67l-5.69-1.19Z" transform="translate(-65.09 -31.25)" fill="#a8a8a8"/><path d="M894.59,793.19q4.44-2.79,8.79-5.67,8.68-5.71,17.06-11.8c-3.93-2.8-7.67-4.74-10.27-4.51,0,0-13.33.91-15.36,19.06C894.71,791.2,894.63,792.17,894.59,793.19Z" transform="translate(-65.09 -31.25)" fill="#fff" opacity="0.1"/><path d="M840.22,714.25l.3.92,28,84.92,2.33,7.06,2.91-1.61a215.58,215.58,0,0,0-27.12-81.36c-2.88-4.9-5.07-8.07-6-9.32-.22-.32-.36-.51-.42-.58Z" transform="translate(-65.09 -31.25)" opacity="0.1"/><path d="M946,753.16c.09.78.2,1.56.31,2.35q5.22-4.39,10.29-8.93l.3-.27-7.74-41.18-1.6-8.51A182.94,182.94,0,0,0,946,753.16Z" transform="translate(-65.09 -31.25)" opacity="0.1"/><path d="M580.42,106h12.76a8.94,8.94,0,0,1,0-17.87H696.54a8.94,8.94,0,0,1,0,17.87H683.78a8.93,8.93,0,1,1,0,17.86h17.86a8.94,8.94,0,0,1,0,17.87H598.28a8.94,8.94,0,0,1,0-17.87H580.42a8.93,8.93,0,1,1,0-17.86Z" transform="translate(-65.09 -31.25)" fill="#0c66ff" opacity="0.1"/><path d="M727.75,242.87h12.76a8.93,8.93,0,1,1,0-17.86H843.87a8.93,8.93,0,0,1,0,17.86H831.11a8.93,8.93,0,0,1,0,17.86H849a8.94,8.94,0,0,1,0,17.87H745.61a8.94,8.94,0,0,1,0-17.87H727.75a8.93,8.93,0,1,1,0-17.86Z" transform="translate(-65.09 -31.25)" fill="#0c66ff" opacity="0.1"/><path d="M578,670.28h6a4.23,4.23,0,1,1,0-8.46H633a4.23,4.23,0,1,1,0,8.46h-6a4.23,4.23,0,0,1,0,8.46h8.45a4.23,4.23,0,1,1,0,8.46H586.46a4.23,4.23,0,0,1,0-8.46H578a4.23,4.23,0,0,1,0-8.46Z" transform="translate(-65.09 -31.25)" fill="#0c66ff" opacity="0.1"/><path d="M443.29,742.17h4.82a3.38,3.38,0,0,1,0-6.75h39.06a3.38,3.38,0,0,1,0,6.75h-4.82a3.38,3.38,0,0,1,0,6.75h6.75a3.38,3.38,0,0,1,0,6.75H450a3.38,3.38,0,1,1,0-6.75h-6.75a3.38,3.38,0,1,1,0-6.75Z" transform="translate(-65.09 -31.25)" fill="#0c66ff" opacity="0.1"/><path d="M278.18,616.37h6.05a4.23,4.23,0,0,1,0-8.46h48.93a4.23,4.23,0,0,1,0,8.46h-6a4.23,4.23,0,0,1,0,8.46h8.46a4.23,4.23,0,0,1,0,8.46H286.64a4.23,4.23,0,0,1,0-8.46h-8.46a4.23,4.23,0,0,1,0-8.46Z" transform="translate(-65.09 -31.25)" fill="#0c66ff" opacity="0.1"/><path d="M705,748.6h6a4.23,4.23,0,0,1,0-8.46H760a4.23,4.23,0,0,1,0,8.46h-6a4.23,4.23,0,1,1,0,8.46h8.46a4.23,4.23,0,0,1,0,8.45H713.44a4.23,4.23,0,1,1,0-8.45H705a4.23,4.23,0,0,1,0-8.46Z" transform="translate(-65.09 -31.25)" fill="#0c66ff" opacity="0.1"/><path d="M773,339a2.84,2.84,0,0,0-.92-3.67,1.21,1.21,0,0,1-.24-.21h0a1.43,1.43,0,0,1,1.4-2.35h0a1.34,1.34,0,0,1,.3.12,2.85,2.85,0,0,0,3.68-.91,1.27,1.27,0,0,1,.21-.25h0a1.43,1.43,0,0,1,2.34,1.41h0a1.88,1.88,0,0,1-.12.3,2.84,2.84,0,0,0,.92,3.67,1.64,1.64,0,0,1,.25.21h0a1.43,1.43,0,0,1-1.41,2.34h0a1,1,0,0,1-.3-.12,2.86,2.86,0,0,0-3.68.92,1.22,1.22,0,0,1-.2.25h0a1.43,1.43,0,0,1-2.35-1.41h0A1.88,1.88,0,0,1,773,339Z" transform="translate(-65.09 -31.25)" fill="#0c66ff" opacity="0.3"/><path d="M1089.68,170.32a2.83,2.83,0,0,0-.92-3.67,1.57,1.57,0,0,1-.24-.21h0a1.43,1.43,0,0,1,1.41-2.35h0a1.48,1.48,0,0,1,.29.12,2.84,2.84,0,0,0,3.68-.92,1.57,1.57,0,0,1,.21-.24h0a1.43,1.43,0,0,1,2.34,1.41h0a1,1,0,0,1-.12.29,2.86,2.86,0,0,0,.92,3.68,1.64,1.64,0,0,1,.25.21h0a1.43,1.43,0,0,1-1.41,2.34h0a1.25,1.25,0,0,1-.3-.12,2.85,2.85,0,0,0-3.67.92,2.52,2.52,0,0,1-.21.25h0a1.43,1.43,0,0,1-2.35-1.41h0A1.88,1.88,0,0,1,1089.68,170.32Z" transform="translate(-65.09 -31.25)" fill="#0c66ff" opacity="0.3"/><path d="M1094.55,623.38a2.84,2.84,0,0,0-.92-3.67,1.21,1.21,0,0,1-.24-.21h0a1.42,1.42,0,0,1,1.4-2.34h0a1,1,0,0,1,.3.12,2.86,2.86,0,0,0,3.68-.92,1.22,1.22,0,0,1,.2-.25h0a1.43,1.43,0,0,1,2.35,1.41h0a1.88,1.88,0,0,1-.12.3,2.84,2.84,0,0,0,.92,3.67,1.21,1.21,0,0,1,.24.21h0A1.42,1.42,0,0,1,1101,624h0a1,1,0,0,1-.3-.11,2.85,2.85,0,0,0-3.68.91,1.27,1.27,0,0,1-.21.25h0a1.43,1.43,0,0,1-2.34-1.41h0A1.88,1.88,0,0,1,1094.55,623.38Z" transform="translate(-65.09 -31.25)" fill="#0c66ff" opacity="0.3"/><path d="M114.38,69.27a2.85,2.85,0,0,0-.92-3.68,1.21,1.21,0,0,1-.24-.21h0a1.42,1.42,0,0,1,1.4-2.34h0a1.34,1.34,0,0,1,.3.12,2.85,2.85,0,0,0,3.68-.92,1.64,1.64,0,0,1,.21-.25h0a1.43,1.43,0,0,1,2.34,1.41h0a1.34,1.34,0,0,1-.12.3,2.85,2.85,0,0,0,.92,3.68,1.57,1.57,0,0,1,.25.2h0a1.43,1.43,0,0,1-1.41,2.35h0a1.34,1.34,0,0,1-.3-.12,2.85,2.85,0,0,0-3.68.92,1.16,1.16,0,0,1-.2.24h0a1.43,1.43,0,0,1-2.35-1.4h0A1.34,1.34,0,0,1,114.38,69.27Z" transform="translate(-65.09 -31.25)" fill="#0c66ff" opacity="0.3"/><path d="M66.63,38.9a2.84,2.84,0,0,0-.92-3.67,1.21,1.21,0,0,1-.24-.21h0a1.43,1.43,0,0,1,1.4-2.35h0a1.34,1.34,0,0,1,.3.12,2.85,2.85,0,0,0,3.68-.91,1.69,1.69,0,0,1,.2-.25h0A1.43,1.43,0,0,1,73.4,33h0a1.48,1.48,0,0,1-.12.29A2.85,2.85,0,0,0,74.2,37a1.21,1.21,0,0,1,.24.21h0A1.42,1.42,0,0,1,73,39.56h0a1,1,0,0,1-.3-.12,2.86,2.86,0,0,0-3.68.92,1.27,1.27,0,0,1-.21.25h0a1.43,1.43,0,0,1-2.34-1.41h0A1.88,1.88,0,0,1,66.63,38.9Z" transform="translate(-65.09 -31.25)" fill="#0c66ff" opacity="0.3"/><path d="M447,259.45a2.84,2.84,0,0,0-.92-3.67,1.21,1.21,0,0,1-.24-.21h0a1.43,1.43,0,0,1,1.4-2.35h0a1.34,1.34,0,0,1,.3.12,2.85,2.85,0,0,0,3.68-.91,1.22,1.22,0,0,1,.2-.25h0a1.43,1.43,0,0,1,2.35,1.41h0a1.48,1.48,0,0,1-.12.29,2.85,2.85,0,0,0,.92,3.68,1.21,1.21,0,0,1,.24.21h0a1.42,1.42,0,0,1-1.4,2.34h0a1,1,0,0,1-.3-.12,2.86,2.86,0,0,0-3.68.92,1.27,1.27,0,0,1-.21.25h0a1.43,1.43,0,0,1-2.34-1.41h0A1.88,1.88,0,0,1,447,259.45Z" transform="translate(-65.09 -31.25)" fill="#0c66ff" opacity="0.3"/><path d="M270.63,376.94a2.84,2.84,0,0,0-.92-3.67,1.21,1.21,0,0,1-.24-.21h0a1.42,1.42,0,0,1,1.4-2.34h0a1,1,0,0,1,.3.12,2.86,2.86,0,0,0,3.68-.92,1.69,1.69,0,0,1,.2-.25h0a1.43,1.43,0,0,1,2.35,1.41h0a1.88,1.88,0,0,1-.12.3,2.84,2.84,0,0,0,.92,3.67,1.21,1.21,0,0,1,.24.21h0a1.42,1.42,0,0,1-1.4,2.34h0a1,1,0,0,1-.3-.12,2.86,2.86,0,0,0-3.68.92,1.69,1.69,0,0,1-.2.25h0a1.43,1.43,0,0,1-2.35-1.41h0A1.88,1.88,0,0,1,270.63,376.94Z" transform="translate(-65.09 -31.25)" fill="#0c66ff" opacity="0.3"/><path d="M546.63,223.29a2.84,2.84,0,0,0-1.34-3.54,1.27,1.27,0,0,1-.27-.18h0a1.42,1.42,0,0,1,1.12-2.49h0a1.09,1.09,0,0,1,.31.08,2.86,2.86,0,0,0,3.55-1.34,1.59,1.59,0,0,1,.18-.27h0a1.43,1.43,0,0,1,2.49,1.13h0a1.81,1.81,0,0,1-.09.31,2.85,2.85,0,0,0,1.35,3.54,1.51,1.51,0,0,1,.26.18h0a1.43,1.43,0,0,1-1.12,2.49h0a1.57,1.57,0,0,1-.31-.08,2.84,2.84,0,0,0-3.54,1.34,2.11,2.11,0,0,1-.18.27h0a1.43,1.43,0,0,1-2.49-1.13h0A1.18,1.18,0,0,1,546.63,223.29Z" transform="translate(-65.09 -31.25)" fill="#0c66ff" opacity="0.3"/><path d="M996.53,532.23a3.94,3.94,0,0,0,2.2-4.77,2.14,2.14,0,0,1-.08-.44h0a2,2,0,0,1,3.55-1.31h0a1.87,1.87,0,0,1,.22.39,3.94,3.94,0,0,0,4.77,2.2,2.15,2.15,0,0,1,.44-.09h0a2,2,0,0,1,1.31,3.56h0a1.87,1.87,0,0,1-.39.22,4,4,0,0,0-2.2,4.77,1.64,1.64,0,0,1,.09.44h0a2,2,0,0,1-3.56,1.31h0a1.47,1.47,0,0,1-.21-.39,3.94,3.94,0,0,0-4.77-2.2,2.29,2.29,0,0,1-.44.09h0a2,2,0,0,1-1.31-3.56h0A2.08,2.08,0,0,1,996.53,532.23Z" transform="translate(-65.09 -31.25)" fill="#0c66ff" opacity="0.3"/><path d="M387.59,570.11a4,4,0,0,0,2.2-4.77,1.65,1.65,0,0,1-.09-.43h0a2,2,0,0,1,3.56-1.32h0a2.16,2.16,0,0,1,.22.39,3.93,3.93,0,0,0,4.77,2.2,1.56,1.56,0,0,1,.43-.08h0a2,2,0,0,1,1.31,3.55h0a1.79,1.79,0,0,1-.38.22,3.94,3.94,0,0,0-2.2,4.77,2.14,2.14,0,0,1,.08.44h0a2,2,0,0,1-3.55,1.31h0a1.87,1.87,0,0,1-.22-.39,4,4,0,0,0-4.77-2.2,2.15,2.15,0,0,1-.44.09h0a2,2,0,0,1-1.31-3.56h0A1.87,1.87,0,0,1,387.59,570.11Z" transform="translate(-65.09 -31.25)" fill="#0c66ff" opacity="0.3"/><path d="M577.93,579.82a3.94,3.94,0,0,0,2.2-4.77,2.29,2.29,0,0,1-.09-.44h0a2,2,0,0,1,3.56-1.31h0a1.87,1.87,0,0,1,.22.39,3.94,3.94,0,0,0,4.77,2.19,2.14,2.14,0,0,1,.44-.08h0a2,2,0,0,1,1.31,3.55h0a1.87,1.87,0,0,1-.39.22,3.94,3.94,0,0,0-2.2,4.77,2.29,2.29,0,0,1,.09.44h0a2,2,0,0,1-3.56,1.31h0a1.87,1.87,0,0,1-.22-.39,4,4,0,0,0-4.77-2.2,1.64,1.64,0,0,1-.44.09h0a2,2,0,0,1-1.31-3.55h0A1.87,1.87,0,0,1,577.93,579.82Z" transform="translate(-65.09 -31.25)" fill="#0c66ff" opacity="0.3"/><circle cx="121.87" cy="103.29" r="16.5" fill="#0c66ff" opacity="0.1"/><circle cx="944.65" cy="119.79" r="16.5" fill="#0c66ff" opacity="0.1"/><circle cx="199.87" cy="21.37" r="9" fill="#0c66ff" opacity="0.1"/><circle cx="1060.82" cy="283.28" r="9" fill="#0c66ff" opacity="0.1"/><circle cx="138.37" cy="743.99" r="9" fill="#0c66ff" opacity="0.1"/><circle cx="172.87" cy="784.52" r="9" fill="#0c66ff" opacity="0.1"/><circle cx="105.37" cy="808.95" r="9" fill="#0c66ff" opacity="0.1"/></svg>