<svg width="1543px" height="1282px" viewBox="0 0 1543 1282" version="1.1" xmlns="http://www.w3.org/2000/svg" xmlns:xlink="http://www.w3.org/1999/xlink">
    <!-- Generator: Sketch 63.1 (92452) - https://sketch.com -->
    <title>Page 1</title>
    <desc>Created with Sketch.</desc>
    <g id="Page-1" stroke="none" stroke-width="1" fill="none" fill-rule="evenodd">
        <g id="design-team-(1)">
            <rect id="Rectangle" fill="#CED5E5" fill-rule="nonzero" x="0.3" y="0.6" width="1542.6" height="57.8" rx="3"></rect>
            <path d="M405.6,63.1 L405.6,859.1 L1484.7,859.1 C1516.6,859.1 1542.5,833.2 1542.5,801.3 L1542.5,63.1 L405.6,63.1 Z" id="Path" fill="#F1F2F7" fill-rule="nonzero"></path>
            <path d="M0.3,64.4 L0.3,802.5 L0.3,802.5 C0.3,834.4 26.2,860.3 58.1,860.3 L400,860.3 L400,64.3 L0.3,64.3 L0.3,64.4 Z" id="Path" fill="#CED5E5" fill-rule="nonzero"></path>
            <g id="Group" transform="translate(590.000000, 310.000000)" fill="#F8972D" fill-rule="nonzero">
                <path d="M104.5,135.8 L104.5,135.8 C161.7,135.8 208.1,182.2 208.1,239.4 L208.1,300.8 L0.9,300.8 L0.9,239.4 C0.9,182.2 47.3,135.8 104.5,135.8 Z" id="Path"></path>
                <circle id="Oval" cx="104.5" cy="53.8" r="53.8"></circle>
            </g>
            <path d="M1248.1,610.9 L588.2,610.9 C565.7,610.9 547.4,592.6 547.4,570.1 L547.4,258.3 C547.4,235.8 565.7,217.5 588.2,217.5 L1248.1,217.5 C1270.6,217.5 1288.9,235.8 1288.9,258.3 L1288.9,570 C1288.9,592.6 1270.6,610.9 1248.1,610.9 Z" id="Path" stroke="#FFFFFF" stroke-width="3" stroke-linecap="round" stroke-linejoin="round"></path>
            <line x1="22.1" y1="1181.1" x2="331.9" y2="1181.1" id="Path" stroke="#CED5E5" stroke-width="3" stroke-linecap="round" stroke-linejoin="round"></line>
            <line x1="736.7" y1="1181.1" x2="1514.8" y2="1181.1" id="Path" stroke="#CED5E5" stroke-width="3" stroke-linecap="round" stroke-linejoin="round"></line>
            <polygon id="Path" fill="#FFDFD7" fill-rule="nonzero" points="537.1 902.6 588.9 1197 621 1189.8 605.9 884.4"></polygon>
            <path d="M627,492.1 L655.8,446.2 C655.8,446.2 663.5,444.1 660.8,453.9 C658.2,463.7 653.9,471.9 653.9,471.9 C653.9,471.9 667.1,481.1 668.7,489.3 C670.3,497.5 649.5,504.3 649.5,504.3 L627,492.1 Z" id="Path" fill="#FFDFD7" fill-rule="nonzero"></path>
            <path d="M507.8,602.2 C507.8,602.2 593.2,543.6 626,490.3 L651.9,504.2 C651.9,504.2 584.7,615.9 530.1,648.7 L505,621.6 L507.8,602.2 Z" id="Path" fill="#008AFF" fill-rule="nonzero"></path>
            <path d="M130.1,1020.3 C130.1,1020.3 76.8,978.3 91.5,930.7 C106.2,883.1 147.6,870.6 88.9,766.3 C30.2,662 102.8,589.4 158.4,590.6 C214,591.7 226.4,690.4 201.5,742.5 C176.6,794.6 252.5,795.8 253.1,860.4 C253.7,925 220.8,955.6 210.6,1020.3 L130.1,1020.3 L130.1,1020.3 Z" id="Path" fill="#51CB96" fill-rule="nonzero"></path>
            <path d="M1225.9,330.3 L902.7,330.3 C895.8,330.3 890.1,324.7 890.1,317.7 L890.1,317.7 C890.1,310.8 895.7,305.1 902.7,305.1 L1225.9,305.1 C1232.8,305.1 1238.5,310.7 1238.5,317.7 L1238.5,317.7 C1238.4,324.6 1232.8,330.3 1225.9,330.3 Z" id="Path" fill="#CED5E5" fill-rule="nonzero"></path>
            <path d="M1225.9,384.2 L902.7,384.2 C895.8,384.2 890.1,378.6 890.1,371.6 L890.1,371.6 C890.1,364.7 895.7,359 902.7,359 L1225.9,359 C1232.8,359 1238.5,364.6 1238.5,371.6 L1238.5,371.6 C1238.4,378.6 1232.8,384.2 1225.9,384.2 Z" id="Path" fill="#CED5E5" fill-rule="nonzero"></path>
            <path d="M1225.9,438.2 L902.7,438.2 C895.8,438.2 890.1,432.6 890.1,425.6 L890.1,425.6 C890.1,418.7 895.7,413 902.7,413 L1225.9,413 C1232.8,413 1238.5,418.6 1238.5,425.6 L1238.5,425.6 C1238.4,432.6 1232.8,438.2 1225.9,438.2 Z" id="Path" fill="#CED5E5" fill-rule="nonzero"></path>
            <path d="M1225.9,492.2 L902.7,492.2 C895.8,492.2 890.1,486.6 890.1,479.6 L890.1,479.6 C890.1,472.7 895.7,467 902.7,467 L1225.9,467 C1232.8,467 1238.5,472.6 1238.5,479.6 L1238.5,479.6 C1238.4,486.6 1232.8,492.2 1225.9,492.2 Z" id="Path" fill="#CED5E5" fill-rule="nonzero"></path>
            <path d="M1225.9,546.2 L902.7,546.2 C895.8,546.2 890.1,540.6 890.1,533.6 L890.1,533.6 C890.1,526.7 895.7,521 902.7,521 L1225.9,521 C1232.8,521 1238.5,526.6 1238.5,533.6 L1238.5,533.6 C1238.4,540.6 1232.8,546.2 1225.9,546.2 Z" id="Path" fill="#CED5E5" fill-rule="nonzero"></path>
            <path d="M967.1,727 C967.1,727 964.3,718.2 971.6,711.1 C978.9,703.9 985.4,697.7 998.9,690.2 L1032.2,678.8 L1046.9,706.5 L967.1,727 Z" id="Path" fill="#FCDD8B" fill-rule="nonzero"></path>
            <g id="Group" transform="translate(948.000000, 284.000000)" fill="#283444" fill-rule="nonzero">
                <path d="M12.8,997.4 L12.8,997.4 C5.9,997.4 0.4,991.7 0.6,984.8 L31.6,12.5 C31.8,5.9 37.2,0.7 43.8,0.7 L43.8,0.7 C50.7,0.7 56.2,6.4 56,13.3 L25,985.6 C24.7,992.2 19.3,997.4 12.8,997.4 Z" id="Path"></path>
                <path d="M267.2,997.4 L267.2,997.4 C274.1,997.4 279.6,991.7 279.4,984.8 L248.4,12.5 C248.2,5.9 242.8,0.7 236.2,0.7 L236.2,0.7 C229.3,0.7 223.8,6.4 224,13.3 L255,985.6 C255.2,992.2 260.6,997.4 267.2,997.4 Z" id="Path"></path>
                <rect id="Rectangle" x="44.4" y="17.7" width="190.5" height="16.4"></rect>
                <rect id="Rectangle" x="40.8" y="153.6" width="197.7" height="16.4"></rect>
                <rect id="Rectangle" x="33.8" y="289.5" width="211.7" height="16.4"></rect>
                <rect id="Rectangle" x="32.5" y="425.4" width="214.3" height="16.4"></rect>
                <rect id="Rectangle" x="26.1" y="561.2" width="227.1" height="16.4"></rect>
                <rect id="Rectangle" x="22.3" y="697.1" width="234.7" height="16.4"></rect>
                <rect id="Rectangle" x="17.4" y="833" width="244.5" height="16.4"></rect>
            </g>
            <polygon id="Path" fill="#FFC933" fill-rule="nonzero" points="606 869.7 630.4 1150.1 569.6 1154.1 524.4 880"></polygon>
            <polygon id="Path" fill="#FFDFD7" fill-rule="nonzero" points="481.3 906.7 501.5 1213.3 535.1 1209.5 553.5 895.8"></polygon>
            <polygon id="Path" fill="#FFC933" fill-rule="nonzero" points="468.5 884.7 485.9 1158 549.5 1155.2 554.7 867.1"></polygon>
            <polygon id="Path" fill="#FFC933" fill-rule="nonzero" points="481.3 1158 553.5 1154.1 553.5 1170.9 483.6 1174.6"></polygon>
            <path d="M498.3,1192.3 L495.7,1228.8 L587.4,1233.6 C587.4,1233.6 567.5,1209 534.6,1203.2 L537.7,1187.1 L498.3,1192.3 Z" id="Path" fill="#283444" fill-rule="nonzero"></path>
            <path d="M485.9,610.9 C485.9,610.9 463.3,636.6 461.5,667.6 C459.7,698.6 458.1,885.5 458.1,885.5 C458.1,885.5 597.4,880.9 612,866.3 C612,866.3 564.4,714.3 553.5,676.1 C542.6,637.9 511.4,617 511.4,617 L485.9,610.9 Z" id="Path" fill="#008AFF" fill-rule="nonzero"></path>
            <path d="M490.6,587.6 L485.9,610.9 C485.9,610.9 494.8,618.6 511.4,617 L507.4,591 C507.4,590.9 501.4,580.9 490.6,587.6 Z" id="Path" fill="#FFDFD7" fill-rule="nonzero"></path>
            <path d="M505,500.8 C505,500.8 532.9,567.8 519.6,584.8 C506.2,601.9 472.3,577.6 472.3,577.6 C472.3,577.6 422.5,549.7 428.6,515.7 C434.7,481.7 497,479.2 505,500.8 Z" id="Path" fill="#FFDFD7" fill-rule="nonzero"></path>
            <polygon id="Path" fill="#FFC933" fill-rule="nonzero" points="566.3 1153.1 633.2 1148.5 633.8 1165.6 568.3 1169"></polygon>
            <path d="M587.5,1188.8 L587.5,1224.4 L676.8,1222.8 C676.8,1222.8 655.8,1200.3 623.5,1196.9 L625.4,1181.1 L587.5,1188.8 Z" id="Path" fill="#283444" fill-rule="nonzero"></path>
            <path d="M502.4,496.5 C502.4,496.5 515.9,478.6 498.7,471.7 C481.5,464.8 471.4,480.2 471.4,480.2 C471.4,480.2 464.1,467.7 449.1,473.7 C434.1,479.8 438.6,491.1 438.6,491.1 C438.6,491.1 426.5,485.3 418.8,497.9 C411.1,510.4 418,520.3 424.9,522.7 C424.9,522.7 410.1,530.6 421.7,548.2 C431.3,562.9 449.1,585.4 482.7,584 C487.3,583.8 483.3,562 480.3,550.5 C477.4,539 476,534.6 479,528.6 C481.1,524.4 483.6,524 485.9,524.4 C492.1,525.4 496,544 496,544 L501.9,538.1 C501.9,538.1 491.5,515.1 494.4,505.3 C496.7,502.5 499.4,499.6 502.4,496.5 Z" id="Path" fill="#283444" fill-rule="nonzero"></path>
            <polygon id="Path" fill="#008AFF" fill-rule="nonzero" points="507.4 676.8 490 914.4 455.6 914.4 461.6 667.5"></polygon>
            <path d="M457.2,914.4 C457.2,914.4 450.5,956.7 452.3,965.6 C454.1,974.5 460,983.6 466.7,984.6 C473.4,985.6 483.2,984.7 483.8,978 C484.7,967.7 484.5,939 484.5,939 C484.5,939 487.5,965 491.6,964.6 C495.9,964.2 493.6,944.1 492.4,931.7 C491.2,919.4 488.2,914.3 488.2,914.3 L457.2,914.3 L457.2,914.4 Z" id="Path" fill="#FFDFD7" fill-rule="nonzero"></path>
            <path d="M507.4,676.8 L492.2,883.8 C492.2,883.8 598.4,878.8 612,866.2" id="Path" stroke="#027FE9" stroke-width="3" stroke-linecap="round" stroke-linejoin="round"></path>
            <path d="M537.7,643.7 C537.7,643.7 529.2,631.5 511.4,617 C511.4,617 499.3,620.4 485.9,610.9" id="Path" stroke="#027FE9" stroke-width="3" stroke-linecap="round" stroke-linejoin="round"></path>
            <line x1="552.1" y1="1048.1" x2="554.7" y2="925.3" id="Path" stroke="#FFBB23" stroke-width="3" stroke-linecap="round" stroke-linejoin="round"></line>
            <line x1="481.3" y1="1158" x2="553.5" y2="1154.1" id="Path" stroke="#FFBB23" stroke-width="3" stroke-linecap="round" stroke-linejoin="round"></line>
            <line x1="566.3" y1="1153.1" x2="633.2" y2="1148.5" id="Path" stroke="#FFBB23" stroke-width="3" stroke-linecap="round" stroke-linejoin="round"></line>
            <polyline id="Path" stroke="#FFFFFF" stroke-width="3" stroke-linecap="round" stroke-linejoin="round" points="163.6 1012.5 186.5 875.8 136.3 732.3 144.8 654.6"></polyline>
            <line x1="174.1" y1="949.7" x2="140.6" y2="910.3" id="Path" stroke="#FFFFFF" stroke-width="3" stroke-linecap="round" stroke-linejoin="round"></line>
            <line x1="186.5" y1="875.8" x2="213.7" y2="841.7" id="Path" stroke="#FFFFFF" stroke-width="3" stroke-linecap="round" stroke-linejoin="round"></line>
            <line x1="136.3" y1="732.3" x2="106.6" y2="703.1" id="Path" stroke="#FFFFFF" stroke-width="3" stroke-linecap="round" stroke-linejoin="round"></line>
            <path d="M229.6,1057.7 L247.7,1011.8 L92.1,1011.8 L110.2,1057.7 L90.8,1106.3 C83.8,1123.8 85.9,1143.6 96.3,1159.3 L96.3,1159.3 C105,1172.3 119.6,1180.2 135.3,1180.2 L204.5,1180.2 C220.2,1180.2 234.8,1172.4 243.5,1159.3 L243.5,1159.3 C254,1143.6 256,1123.8 249,1106.3 L229.6,1057.7 Z" id="Path" fill="#C7C7C7" fill-rule="nonzero"></path>
            <line x1="150.1" y1="771.5" x2="169" y2="732.3" id="Path" stroke="#FFFFFF" stroke-width="3" stroke-linecap="round" stroke-linejoin="round"></line>
            <circle id="Oval" fill="#FFFFFF" fill-rule="nonzero" cx="634.7" cy="709.4" r="35"></circle>
            <circle id="Oval" fill="#FFFFFF" fill-rule="nonzero" cx="759.7" cy="709.4" r="35"></circle>
            <circle id="Oval" fill="#FFFFFF" fill-rule="nonzero" cx="884.7" cy="709.4" r="35"></circle>
            <rect id="Rectangle" fill="#CED5E5" fill-rule="nonzero" x="1501.7" y="196" width="15" height="513.4"></rect>
            <g id="Group" transform="translate(1502.000000, 175.000000)" fill="#CED5E5" fill-rule="nonzero">
                <path d="M6.34433261,0.755395683 L0.180773222,12.7697842 C-0.332856727,13.7769784 0.309180709,15 1.33644061,15 L13.6635594,15 C14.6908193,15 15.3328567,13.7769784 14.8192268,12.7697842 L8.65566739,0.755395683 C8.14203744,-0.251798561 6.85796256,-0.251798561 6.34433261,0.755395683 Z" id="Path"></path>
                <path d="M8.65566739,555.244604 L14.8192268,543.230216 C15.3328567,542.223022 14.6908193,541 13.6635594,541 L1.33644061,541 C0.309180709,541 -0.332856727,542.223022 0.180773222,543.230216 L6.34433261,555.244604 C6.85796256,556.251799 8.14203744,556.251799 8.65566739,555.244604 Z" id="Path"></path>
            </g>
            <path d="M873,192.1 C873,192.1 860.1,174.1 851.6,169.7 C841.8,164.6 834.5,157.1 822.9,158 C816.5,158.5 822.3,172.4 833.3,185.8 C842.4,196.8 855.6,207.4 862.4,209.8 C877.3,214.9 873,192.1 873,192.1 Z" id="Path" fill="#FFDFD7" fill-rule="nonzero"></path>
            <polygon id="Path" fill="#292A29" fill-rule="nonzero" points="1161.2 484.5 1164.5 819.6 1131.5 819.6 1077.1 508.3 1153.8 480.6"></polygon>
            <path d="M1079.3,845.2 C1079.3,845.2 1080.8,837.2 1091.1,833.3 C1101.3,829.4 1114.7,822 1131.6,819.6 L1164.5,819.6 L1167.1,845.3 L1079.3,845.3 L1079.3,845.2 Z" id="Path" fill="#FCDD8B" fill-rule="nonzero"></path>
            <path d="M1027.7,465.7 C1027.7,465.7 919.9,537.9 908.6,557.2 C899.5,572.7 998.8,690.1 998.8,690.1 L1032.1,678.7 L970.7,573.4 C970.7,573.4 1105,519.7 1149.8,486.7 L1027.7,465.7 Z" id="Path" fill="#363736" fill-rule="nonzero"></path>
            <path d="M1064.9,155.3 C1064.9,155.3 1052.6,194 1054.3,218.2 C1056.1,242.4 1089.8,220 1100.8,211.2 C1111.9,202.4 1110.1,160.9 1110.1,160.9 C1110.1,160.9 1094.3,133.4 1064.9,155.3 Z" id="Path" fill="#FFDFD7" fill-rule="nonzero"></path>
            <polygon id="Path" fill="#FFDFD7" fill-rule="nonzero" points="1083.3 220 1080.4 255.8 1096.4 258.5 1106.5 255.8 1098.2 207.3"></polygon>
            <path d="M1062.5,161 C1062.5,161 1055.4,150.2 1072.7,138.4 C1090,126.6 1120.8,132.1 1139.4,156.8 C1158,181.5 1160.8,170.2 1182.4,186 C1204,201.8 1230.4,228.3 1213.3,252 C1198.9,272.1 1165,279.7 1132.3,251.6 C1102.3,225.8 1097.7,216.5 1086.4,182.8 C1080.8,166.1 1075.7,169 1062.5,161 Z" id="Path" fill="#272626" fill-rule="nonzero"></path>
            <path d="M1043.9,315 L1022.5,463.9 C1022.5,463.9 1099.9,493.2 1164.5,485.8 C1164.5,485.8 1151.5,321.5 1106.1,253.3 C1106.1,253.3 1094.5,259.8 1080.4,254.1 C1080.4,254 1057.5,281.1 1043.9,315 Z" id="Path" fill="#FFFFFF" fill-rule="nonzero"></path>
            <path d="M1093.5,280.4 C1093.5,280.4 1012.9,265 979.8,253.2 C961.4,246.6 877.2,189.4 877.2,189.4 C877.2,189.4 861.7,196.5 861.7,216.5 L946.5,284.7 L1064,334.3 L1087.1,307.3 L1093.5,280.4 Z" id="Path" fill="#FFFFFF" fill-rule="nonzero"></path>
            <path d="M324.7,209.7 L75.5,209.7 C67.1,209.7 60.2,202.9 60.2,194.4 L60.2,194.4 C60.2,186 67,179.1 75.5,179.1 L324.8,179.1 C333.2,179.1 340.1,185.9 340.1,194.4 L340.1,194.4 C340,202.9 333.2,209.7 324.7,209.7 Z" id="Path" fill="#FFFFFF" fill-rule="nonzero"></path>
            <path d="M324.7,300 L75.5,300 C67.1,300 60.2,293.2 60.2,284.7 L60.2,284.7 C60.2,276.3 67,269.4 75.5,269.4 L324.8,269.4 C333.2,269.4 340.1,276.2 340.1,284.7 L340.1,284.7 C340,293.2 333.2,300 324.7,300 Z" id="Path" fill="#FFFFFF" fill-rule="nonzero"></path>
            <path d="M324.7,390.2 L75.5,390.2 C67.1,390.2 60.2,383.4 60.2,374.9 L60.2,374.9 C60.2,366.5 67,359.6 75.5,359.6 L324.8,359.6 C333.2,359.6 340.1,366.4 340.1,374.9 L340.1,374.9 C340,383.4 333.2,390.2 324.7,390.2 Z" id="Path" fill="#FFFFFF" fill-rule="nonzero"></path>
            <line x1="842.1" y1="217.5" x2="842.1" y2="610.9" id="Path" stroke="#FFFFFF" stroke-width="3" stroke-linecap="round" stroke-linejoin="round"></line>
            <path d="M1120.8,280.8 L1160,353.9 C1160,353.9 1162.4,320.2 1172,287.8 C1172,287.8 1174.2,290.3 1181.2,292 C1188.2,293.7 1193.5,292.9 1193.5,292.9 C1193.5,292.9 1193.9,378.7 1182.9,399.2 C1179.5,405.6 1164.5,401.1 1152.5,396.2 C1143.7,392.6 1136.4,388.7 1136.4,388.7 L1121.3,284.7 L1120.8,280.8 Z" id="Path" fill="#FFFFFF" fill-rule="nonzero"></path>
            <path d="M1152.5,396.2 C1148.8,375.6 1147.8,374 1144.9,361.3" id="Path" stroke="#F1F2F7" stroke-width="3" stroke-linecap="round" stroke-linejoin="round"></path>
            <path d="M1172.4,288.4 C1172.4,288.4 1171.7,282.6 1177,280.9 C1182.3,279.2 1198.6,281.5 1199.6,287.1 C1200.6,292.7 1196.5,294.4 1195.4,292.3 C1194.3,290.2 1192.6,293 1192.6,293 C1192.6,293 1177.6,297.1 1172.4,288.4 Z" id="Path" fill="#FFDFD7" fill-rule="nonzero"></path>
        </g>
        <circle id="Oval" stroke="#979797" fill="#FFFFFF" cx="36" cy="32" r="10"></circle>
    </g>
</svg>
